<?xml version="1.0" encoding="UTF-8"?>
<!DOCTYPE svg PUBLIC "-//W3C//DTD SVG 1.1//EN" "http://www.w3.org/Graphics/SVG/1.1/DTD/svg11.dtd">
<svg version="1.1" xmlns="http://www.w3.org/2000/svg" xmlns:xlink="http://www.w3.org/1999/xlink" x="0" y="0" width="870" height="220" viewBox="0, 0, 870, 220">
  <defs>
    <radialGradient id="Gradient_1" gradientUnits="userSpaceOnUse" cx="-492.604" cy="-133.549" r="13.774" gradientTransform="matrix(-1, -0.001, 0.001, -1, 0, 0)">
      <stop offset="0.949" stop-color="#414042"/>
      <stop offset="1" stop-color="#FFFFFF"/>
    </radialGradient>
    <linearGradient id="Gradient_2" gradientUnits="userSpaceOnUse" x1="487.797" y1="-153.686" x2="490.668" y2="-153.686" gradientTransform="matrix(0.851, 0.525, -0.525, 0.851, 0, 0)">
      <stop offset="0" stop-color="#FFFFFF"/>
      <stop offset="0.399" stop-color="#000000" stop-opacity="0.197"/>
    </linearGradient>
  </defs>
  <g id="Layer_2">
    <g id="Body">
      <path d="M799.575,16.376 C799.948,16.376 800.072,14.142 801.056,14.057 C806.588,13.582 819.988,13.831 822.786,15.309 L865.888,48.664 L865.64,71.533 L857.355,77.345 C850.2,134.662 843.014,199.813 839.326,204.317 C835.733,208.706 831.783,209.474 829.506,209.803 C827.999,210.021 797.971,208.634 785.546,208.396 C784.455,208.376 784.95,209.816 784.118,209.825 C782.424,209.842 781.887,209.707 781.61,209.762 C780.542,209.976 780.001,217.896 779.831,219.057 L733.845,218.773 L732.926,210.371 L729.185,210.24 L728.66,208.796 L142.461,209.35 L142.118,210.895 L137.655,211.238 L137.484,220.156 L91.332,220.134 L90.953,211.145 L88.066,210.83 L86.543,209.354 L57.225,208.872 C31.692,209.216 31.125,203.482 30.005,200.104 C29.457,198.453 12.468,78.517 11.799,77.003 C11.012,75.22 4.421,71.606 4.421,71.606 L4.716,51.648 C4.716,49.072 43.451,18.431 45.856,16.18 L50.128,14.619 L68.393,14.378 L71.374,16.539 L72.789,11.919 L82.476,11.994 L86.202,2.143 L309.999,2.143 L311.605,11.638 L322.172,11.385 L323.355,2.143 L546.297,3.177 L546.932,11.536 L557.775,11.462 L558.861,3.055 L783.928,2.582 L786.92,10.9 L797.536,10.984 L799.575,16.376 z" fill="#363539"/>
      <path d="M799.575,16.376 C799.948,16.376 800.072,14.142 801.056,14.057 C806.588,13.582 819.988,13.831 822.786,15.309 L865.888,48.664 L865.64,71.533 L857.355,77.345 C850.2,134.662 843.014,199.813 839.326,204.317 C835.733,208.706 831.783,209.474 829.506,209.803 C827.999,210.021 797.971,208.634 785.546,208.396 C784.455,208.376 784.95,209.816 784.118,209.825 C782.424,209.842 781.887,209.707 781.61,209.762 C780.542,209.976 780.001,217.896 779.831,219.057 L733.845,218.773 L732.926,210.371 L729.185,210.24 L728.66,208.796 L142.461,209.35 L142.118,210.895 L137.655,211.238 L137.484,220.156 L91.332,220.134 L90.953,211.145 L88.066,210.83 L86.543,209.354 L57.225,208.872 C31.692,209.216 31.125,203.482 30.005,200.104 C29.457,198.453 12.468,78.517 11.799,77.003 C11.012,75.22 4.421,71.606 4.421,71.606 L4.716,51.648 C4.716,49.072 43.451,18.431 45.856,16.18 L50.128,14.619 L68.393,14.378 L71.374,16.539 L72.789,11.919 L82.476,11.994 L86.202,2.143 L309.999,2.143 L311.605,11.638 L322.172,11.385 L323.355,2.143 L546.297,3.177 L546.932,11.536 L557.775,11.462 L558.861,3.055 L783.928,2.582 L786.92,10.9 L797.536,10.984 L799.575,16.376 z" fill-opacity="0" stroke="#FFFFFF" stroke-width="1"/>
    </g>
    <path d="M39.013,74.38 L51.013,197.832 L816.899,195.002 L829.313,75.835 L39.013,74.38 z" fill="#2D2C30"/>
    <path d="M70.639,93.028 L799.992,93.028 C802.495,93.028 804.524,95.052 804.524,97.549 L804.524,190.54 C804.524,193.037 802.495,195.061 799.992,195.061 L70.639,195.061 C68.136,195.061 66.107,193.037 66.107,190.54 L66.107,97.549 C66.107,95.052 68.136,93.028 70.639,93.028 z" fill="#39383C"/>
    <path d="M67.252,14.966 L62.82,47.39 L62.491,67.255 L64.954,45.748 L69.387,16.607 L67.252,14.966 z" fill="#212022" fill-opacity="0.805"/>
    <path d="M800.692,14.966 L805.766,47.39 L806.142,67.255 L803.323,45.748 L798.248,16.607 L800.692,14.966 z" fill="#212022" fill-opacity="0.805"/>
    <path d="M88.902,5.132 L303.502,5.132 L303.502,39.153 L88.902,39.153 z" fill="#404147" id="Pad"/>
    <path d="M326.62,3.471 L541.658,3.471 L541.658,39.154 L326.62,39.154 z" fill="#404147" id="Pad"/>
    <path d="M563.351,3.471 L781.133,3.471 L781.133,39.154 L563.351,39.154 z" fill="#404147" id="Pad"/>
  </g>
  <g id="Inputs_and_outputs">
    <g id="Gain">
      <path d="M492.523,149.427 C484.159,149.427 477.378,142.451 477.378,133.846 C477.378,125.241 484.159,118.266 492.523,118.266 C500.887,118.266 507.668,125.241 507.668,133.846 C507.668,142.451 500.887,149.427 492.523,149.427 z" fill="#000000"/>
      <path d="M492.515,147.561 C500.122,147.566 506.292,141.429 506.297,133.855 C506.301,126.28 500.138,120.136 492.531,120.131 C484.924,120.127 478.754,126.263 478.75,133.838 C478.745,141.413 484.908,147.557 492.515,147.561 z" fill="url(#Gradient_1)"/>
      <path d="M499.332,122.513 L499.332,122.513 C500.007,122.93 500.216,123.814 499.799,124.489 L496.675,129.548 C496.259,130.223 495.374,130.432 494.7,130.016 L494.7,130.016 C494.025,129.599 493.816,128.715 494.233,128.04 L497.357,122.98 C497.773,122.306 498.658,122.097 499.332,122.513 z" fill="url(#Gradient_2)" id="Gain_line"/>
    </g>
    <g id="Sub_Out">
      <g id="R">
        <path d="M632.469,131.644 C624.037,131.644 617.201,125.441 617.201,117.789 C617.201,110.137 624.037,103.933 632.469,103.933 C640.9,103.933 647.736,110.137 647.736,117.789 C647.736,125.441 640.9,131.644 632.469,131.644 z" fill="#2C2B2F"/>
        <path d="M632.471,128.075 C626.218,128.157 621.088,123.551 621.012,117.786 C620.936,112.022 625.943,107.282 632.196,107.2 C638.449,107.118 643.58,111.724 643.656,117.488 C643.732,123.253 638.724,127.992 632.471,128.075 z" fill="#000000"/>
      </g>
      <g id="L/Mono">
        <path d="M670.449,131.644 C662.018,131.644 655.182,125.441 655.182,117.789 C655.182,110.137 662.018,103.933 670.449,103.933 C678.881,103.933 685.716,110.137 685.716,117.789 C685.716,125.441 678.881,131.644 670.449,131.644 z" fill="#2C2B2F"/>
        <path d="M670.452,128.075 C664.199,128.157 659.068,123.551 658.992,117.786 C658.917,112.022 663.924,107.282 670.177,107.2 C676.43,107.118 681.561,111.724 681.637,117.488 C681.713,123.253 676.705,127.992 670.452,128.075 z" fill="#000000"/>
      </g>
    </g>
    <g id="Midi">
      <g id="In">
        <path d="M438.118,152.641 C426.316,152.343 416.999,142.427 417.31,130.492 C417.62,118.557 427.44,109.124 439.242,109.422 C451.045,109.72 460.361,119.636 460.05,131.571 C459.74,143.505 449.921,152.939 438.118,152.641 z" fill="#000000"/>
        <path d="M438.118,152.641 C426.316,152.343 416.999,142.427 417.31,130.492 C417.62,118.557 427.44,109.124 439.242,109.422 C451.045,109.72 460.361,119.636 460.05,131.571 C459.74,143.505 449.921,152.939 438.118,152.641 z" fill-opacity="0" stroke="#FFFFFF" stroke-width="1"/>
      </g>
      <g id="Out">
        <path d="M377.481,152.641 C365.679,152.343 356.363,142.427 356.673,130.492 C356.984,118.557 366.803,109.124 378.606,109.422 C390.408,109.72 399.724,119.636 399.414,131.571 C399.103,143.505 389.284,152.939 377.481,152.641 z" fill="#000000"/>
        <path d="M377.481,152.641 C365.679,152.343 356.363,142.427 356.673,130.492 C356.984,118.557 366.803,109.124 378.606,109.422 C390.408,109.72 399.724,119.636 399.414,131.571 C399.103,143.505 389.284,152.939 377.481,152.641 z" fill-opacity="0" stroke="#FFFFFF" stroke-width="1"/>
      </g>
    </g>
    <g id="Trig_In">
      <g id="L/Mono">
        <path d="M670.449,182 C662.018,182 655.182,175.797 655.182,168.144 C655.182,160.492 662.018,154.289 670.449,154.289 C678.881,154.289 685.716,160.492 685.716,168.144 C685.716,175.797 678.881,182 670.449,182 z" fill="#2C2B2F"/>
        <path d="M670.452,178.43 C664.199,178.513 659.068,173.907 658.992,168.142 C658.917,162.378 663.924,157.638 670.177,157.556 C676.43,157.473 681.561,162.079 681.637,167.844 C681.713,173.608 676.705,178.348 670.452,178.43 z" fill="#000000"/>
      </g>
      <g id="R">
        <path d="M632.469,182 C624.037,182 617.201,175.797 617.201,168.144 C617.201,160.492 624.037,154.289 632.469,154.289 C640.9,154.289 647.736,160.492 647.736,168.144 C647.736,175.797 640.9,182 632.469,182 z" fill="#2C2B2F"/>
        <path d="M632.471,178.43 C626.218,178.513 621.088,173.907 621.012,168.142 C620.936,162.378 625.943,157.638 632.196,157.556 C638.449,157.473 643.58,162.079 643.656,167.844 C643.732,173.608 638.724,178.348 632.471,178.43 z" fill="#000000"/>
      </g>
    </g>
    <g id="Master_Out">
      <g id="R">
        <path d="M719.752,131.644 C711.32,131.644 704.485,125.441 704.485,117.789 C704.485,110.137 711.32,103.933 719.752,103.933 C728.184,103.933 735.019,110.137 735.019,117.789 C735.019,125.441 728.184,131.644 719.752,131.644 z" fill="#2C2B2F"/>
        <path d="M719.755,128.075 C713.502,128.157 708.371,123.551 708.295,117.786 C708.219,112.022 713.227,107.282 719.48,107.2 C725.733,107.118 730.864,111.724 730.94,117.488 C731.015,123.253 726.008,127.992 719.755,128.075 z" fill="#000000"/>
      </g>
      <g id="L/Mono">
        <path d="M757.733,131.644 C749.301,131.644 742.466,125.441 742.466,117.789 C742.466,110.137 749.301,103.933 757.733,103.933 C766.165,103.933 773,110.137 773,117.789 C773,125.441 766.165,131.644 757.733,131.644 z" fill="#2C2B2F"/>
        <path d="M757.736,128.075 C751.483,128.157 746.352,123.551 746.276,117.786 C746.2,112.022 751.208,107.282 757.461,107.2 C763.714,107.118 768.844,111.724 768.92,117.488 C768.996,123.253 763.989,127.992 757.736,128.075 z" fill="#000000"/>
      </g>
    </g>
    <g id="Foot_Switch">
      <path d="M578.233,182 C569.801,182 562.966,175.797 562.966,168.144 C562.966,160.492 569.801,154.289 578.233,154.289 C586.665,154.289 593.5,160.492 593.5,168.144 C593.5,175.797 586.665,182 578.233,182 z" fill="#2C2B2F"/>
      <path d="M578.236,178.43 C571.983,178.513 566.852,173.907 566.776,168.142 C566.7,162.378 571.708,157.638 577.961,157.556 C584.214,157.473 589.344,162.079 589.42,167.844 C589.496,173.608 584.489,178.348 578.236,178.43 z" fill="#000000"/>
    </g>
    <g id="Audio_In">
      <g id="R">
        <path d="M540.252,131.644 C531.82,131.644 524.985,125.441 524.985,117.789 C524.985,110.137 531.82,103.933 540.252,103.933 C548.684,103.933 555.519,110.137 555.519,117.789 C555.519,125.441 548.684,131.644 540.252,131.644 z" fill="#2C2B2F"/>
        <path d="M540.255,128.075 C534.002,128.157 528.871,123.551 528.795,117.786 C528.719,112.022 533.727,107.282 539.98,107.2 C546.233,107.118 551.364,111.724 551.439,117.488 C551.515,123.253 546.508,127.992 540.255,128.075 z" fill="#000000"/>
      </g>
      <g id="L/Mono">
        <path d="M578.233,131.644 C569.801,131.644 562.966,125.441 562.966,117.789 C562.966,110.137 569.801,103.933 578.233,103.933 C586.665,103.933 593.5,110.137 593.5,117.789 C593.5,125.441 586.665,131.644 578.233,131.644 z" fill="#2C2B2F"/>
        <path d="M578.236,128.075 C571.983,128.157 566.852,123.551 566.776,117.786 C566.7,112.022 571.708,107.282 577.961,107.2 C584.214,107.118 589.344,111.724 589.42,117.488 C589.496,123.253 584.489,127.992 578.236,128.075 z" fill="#000000"/>
      </g>
    </g>
    <g id="Phones">
      <path d="M719.752,182 C711.32,182 704.485,175.797 704.485,168.144 C704.485,160.492 711.32,154.289 719.752,154.289 C728.184,154.289 735.019,160.492 735.019,168.144 C735.019,175.797 728.184,182 719.752,182 z" fill="#2C2B2F"/>
      <path d="M719.755,178.43 C713.502,178.513 708.371,173.907 708.295,168.142 C708.219,162.378 713.227,157.638 719.48,157.556 C725.733,157.473 730.864,162.079 730.94,167.844 C731.015,173.608 726.008,178.348 719.755,178.43 z" fill="#000000"/>
    </g>
    <g id="DC">
      <g id="DC_IN">
        <path d="M319.193,104.433 L339.107,104.433 L339.107,129.624 L319.193,129.624 z" fill="#2C2B2F"/>
        <path d="M319.193,104.433 L339.107,104.433 L339.107,129.624 L319.193,129.624 z" fill-opacity="0" stroke="#000000" stroke-width="1"/>
      </g>
      <g>
        <path d="M329.15,127.261 C325.511,127.261 322.561,124.268 322.561,120.576 C322.561,116.884 325.511,113.892 329.15,113.892 C332.789,113.892 335.739,116.884 335.739,120.576 C335.739,124.268 332.789,127.261 329.15,127.261 z" fill="#000000"/>
        <path d="M329.15,127.261 C325.511,127.261 322.561,124.268 322.561,120.576 C322.561,116.884 325.511,113.892 329.15,113.892 C332.789,113.892 335.739,116.884 335.739,120.576 C335.739,124.268 332.789,127.261 329.15,127.261 z" fill-opacity="0" stroke="#000000" stroke-width="0.5"/>
      </g>
      <g>
        <path d="M331.51,119.96 C330.845,119.96 330.305,119.392 330.305,118.691 C330.305,117.991 330.845,117.423 331.51,117.423 C332.175,117.423 332.714,117.991 332.714,118.691 C332.714,119.392 332.175,119.96 331.51,119.96 z" fill="#FFFFFF"/>
        <path d="M331.51,119.96 C330.845,119.96 330.305,119.392 330.305,118.691 C330.305,117.991 330.845,117.423 331.51,117.423 C332.175,117.423 332.714,117.991 332.714,118.691 C332.714,119.392 332.175,119.96 331.51,119.96 z" fill-opacity="0" stroke="#000000" stroke-width="0.5"/>
      </g>
    </g>
    <g id="USB">
      <g>
        <path d="M208.491,135.777 L236.058,135.777 L236.058,159.542 L208.491,159.542 z" fill="#FFFFFF"/>
        <path d="M208.491,135.777 L236.058,135.777 L236.058,159.542 L208.491,159.542 z" fill-opacity="0" stroke="#000000" stroke-width="1"/>
      </g>
      <g>
        <path d="M211.932,138.147 L212.001,153.297 L216.152,157.171 L228.189,157.31 L232.617,153.297 L232.409,138.009 L211.932,138.147 z" fill="#000000"/>
        <path d="M211.932,138.147 L212.001,153.297 L216.152,157.171 L228.189,157.31 L232.617,153.297 L232.409,138.009 L211.932,138.147 z" fill-opacity="0" stroke="#000000" stroke-width="1"/>
      </g>
    </g>
    <g id="Memory">
      <g>
        <path d="M171.666,132.144 L181.113,132.144 C183.782,132.144 185.946,134.263 185.946,136.877 L185.946,164.94 C185.946,167.553 183.782,169.672 181.113,169.672 L171.666,169.672 C168.997,169.672 166.833,167.553 166.833,164.94 L166.833,136.877 C166.833,134.263 168.997,132.144 171.666,132.144 z" fill="#000000" fill-opacity="0.295"/>
        <path d="M171.666,132.144 L181.113,132.144 C183.782,132.144 185.946,134.263 185.946,136.877 L185.946,164.94 C185.946,167.553 183.782,169.672 181.113,169.672 L171.666,169.672 C168.997,169.672 166.833,167.553 166.833,164.94 L166.833,136.877 C166.833,134.263 168.997,132.144 171.666,132.144 z" fill-opacity="0" stroke="#000000" stroke-width="1"/>
      </g>
      <path d="M181.308,136.752 L183.62,136.752 L183.62,163.392 L181.308,163.392 z" fill="#FFFFFF"/>
      <path d="M167.105,137.509 L169.468,137.509 L169.468,164.731 L167.105,164.731 z" fill="#FFFFFF"/>
      <path d="M171.339,164.998 L180.15,164.998 L180.15,166.76 L171.339,166.76 z" fill="#FFFFFF"/>
      <path d="M170.218,133.12 L179.733,133.12 L179.733,135.277 L170.218,135.277 z" fill="#FFFFFF"/>
      <g>
        <path d="M180.65,135.446 L182.636,137.252" fill="#FFFFFF"/>
        <path d="M180.65,135.446 L182.636,137.252" fill-opacity="0" stroke="#FFFFFF" stroke-width="1"/>
      </g>
      <path d="M182.636,164.472 L180.65,166.074" fill-opacity="0" stroke="#FFFFFF" stroke-width="1"/>
      <path d="M169.968,165.498 L171.839,166.555" fill-opacity="0" stroke="#FFFFFF" stroke-width="1"/>
      <path d="M168.956,137.528 L170.43,135.446" fill-opacity="0" stroke="#FFFFFF" stroke-width="1"/>
    </g>
  </g>
  <g id="Labels">
    <text transform="matrix(1, 0, 0, 1, 719.752, 156.941)">
      <tspan x="-15.338" y="-2.232" font-family="GranthaSangamMN-Bold" font-size="8" fill="#DADCE0">PHONES</tspan>
    </text>
    <g id="Master_Out">
      <path d="M705.47,97.338 L770.981,97.338 C771.525,97.338 771.966,97.75 771.966,98.259 L771.966,103.012 C771.966,103.521 771.525,103.933 770.981,103.933 L705.47,103.933 C704.926,103.933 704.485,103.521 704.485,103.012 L704.485,98.259 C704.485,97.75 704.926,97.338 705.47,97.338 z" fill="#DADCE0"/>
      <text transform="matrix(1, 0, 0, 1, 738.225, 102.028)" id="MASTER_OUT">
        <tspan x="-24.262" y="1" font-family="GranthaSangamMN-Bold" font-size="8" fill="#000000">MASTER OUT</tspan>
      </text>
      <text transform="matrix(1, 0, 0, 1, 719.752, 138.124)">
        <tspan x="-2.545" y="1.173" font-family="GranthaSangamMN-Bold" font-size="8" fill="#DADCE0">R</tspan>
      </text>
      <text transform="matrix(1, 0, 0, 1, 759.383, 138.124)">
        <tspan x="-15.441" y="1" font-family="GranthaSangamMN-Bold" font-size="8" fill="#DADCE0">L/MONO</tspan>
      </text>
    </g>
    <g id="USB">
      <text transform="matrix(1, 0, 0, 1, 223.093, 130.373)">
        <tspan x="-21.082" y="-2.225" font-family="GranthaSangamMN-Bold" font-size="8" fill="#DADCE0">COMPUTER</tspan>
      </text>
      <text transform="matrix(1, 0, 0, 1, 177.208, 130.373)">
        <tspan x="-16.719" y="-2.225" font-family="GranthaSangamMN-Bold" font-size="8" fill="#DADCE0">MEMORY</tspan>
      </text>
      <path d="M157.359,102.734 L249.466,102.734 C250.018,102.734 250.466,103.182 250.466,103.734 L250.466,185.355 C250.466,185.907 250.018,186.355 249.466,186.355 L157.359,186.355 C156.806,186.355 156.359,185.907 156.359,185.355 L156.359,103.734 C156.359,103.182 156.806,102.734 157.359,102.734 z" fill-opacity="0" stroke="#FFFFFF" stroke-width="0.5" id="USB_Box"/>
      <text transform="matrix(1, 0, 0, 1, 202.912, 117.789)" id="HI-SPEED_USB">
        <tspan x="-25.812" y="-2.225" font-family="GranthaSangamMN-Bold" font-size="8" fill="#DADCE0">HI-SPEED USB</tspan>
      </text>
    </g>
    <g id="Sub_Out">
      <text transform="matrix(1, 0, 0, 1, 651.459, 102.028)" id="____SUB_OUT____">
        <tspan x="-32.453" y="1" font-family="GranthaSangamMN-Bold" font-size="8" fill="#DADCE0">____SUB OUT____</tspan>
      </text>
      <text transform="matrix(1, 0, 0, 1, 672.242, 138.124)">
        <tspan x="-15.441" y="1" font-family="GranthaSangamMN-Bold" font-size="8" fill="#DADCE0">L/MONO</tspan>
      </text>
      <text transform="matrix(1, 0, 0, 1, 632.771, 138.124)">
        <tspan x="-2.545" y="1.173" font-family="GranthaSangamMN-Bold" font-size="8" fill="#DADCE0">R</tspan>
      </text>
    </g>
    <g id="Foot_Switch">
      <text transform="matrix(1, 0, 0, 1, 578.702, 153.991)">
        <tspan x="-17.1" y="0.718" font-family="GranthaSangamMN-Bold" font-size="8" fill="#DADCE0">FOOT SW</tspan>
      </text>
      <text transform="matrix(1, 0, 0, 1, 578.702, 191)">
        <tspan x="-6.453" y="1" font-family="GranthaSangamMN-Bold" font-size="8" fill="#DADCE0">1/2</tspan>
      </text>
    </g>
    <g id="Trig_In">
      <text transform="matrix(1, 0, 0, 1, 652.212, 158.709)">
        <tspan x="-29.607" y="-4" font-family="GranthaSangamMN-Bold" font-size="8" fill="#DADCE0">____TRIG IN____</tspan>
      </text>
      <text transform="matrix(1, 0, 0, 1, 672.242, 191)">
        <tspan x="-6.453" y="1" font-family="GranthaSangamMN-Bold" font-size="8" fill="#DADCE0">1/2</tspan>
      </text>
      <text transform="matrix(1, 0, 0, 1, 632.771, 191)">
        <tspan x="-6.453" y="1" font-family="GranthaSangamMN-Bold" font-size="8" fill="#DADCE0">3/4</tspan>
      </text>
    </g>
    <g id="MIDI">
      <text transform="matrix(1, 0, 0, 1, 407.862, 102.028)" id="____MIDI____">
        <tspan x="-52.494" y="1" font-family="GranthaSangamMN-Bold" font-size="8" fill="#DADCE0">____________MIDI__________</tspan>
      </text>
      <text transform="matrix(1, 0, 0, 1, 377.519, 158.709)">
        <tspan x="-7.861" y="0.718" font-family="GranthaSangamMN-Bold" font-size="8" fill="#DADCE0">OUT</tspan>
      </text>
      <text transform="matrix(1, 0, 0, 1, 438.389, 159.646)">
        <tspan x="-3.715" y="-0.219" font-family="GranthaSangamMN-Bold" font-size="8" fill="#DADCE0">IN</tspan>
      </text>
    </g>
    <g>
      <text transform="matrix(1, 0, 0, 1, 537.463, 102.028)" id="____AUDIO_IN____">
        <tspan x="-57.002" y="1" font-family="GranthaSangamMN-Bold" font-size="8" fill="#DADCE0">__________AUDIO IN__________</tspan>
      </text>
      <text transform="matrix(1, 0, 0, 1, 578.702, 138.124)">
        <tspan x="-15.441" y="1" font-family="GranthaSangamMN-Bold" font-size="8" fill="#DADCE0">L/MONO</tspan>
      </text>
      <text transform="matrix(1, 0, 0, 1, 540.986, 138.124)">
        <tspan x="-2.545" y="1.173" font-family="GranthaSangamMN-Bold" font-size="8" fill="#DADCE0">R</tspan>
      </text>
      <g id="Gain">
        <text transform="matrix(1, 0, 0, 1, 480.545, 117.789)">
          <tspan x="-8.244" y="1" font-family="GranthaSangamMN-Bold" font-size="8" fill="#DADCE0">LINE</tspan>
        </text>
        <text transform="matrix(1, 0, 0, 1, 503.998, 117.789)">
          <tspan x="-6.961" y="1" font-family="GranthaSangamMN-Bold" font-size="8" fill="#DADCE0">MIC</tspan>
        </text>
        <text transform="matrix(1, 0, 0, 1, 492.523, 156.941)">
          <tspan x="-9.252" y="1" font-family="GranthaSangamMN-Bold" font-size="8" fill="#DADCE0">GAIN</tspan>
        </text>
      </g>
    </g>
    <g id="DC_IN">
      <text transform="matrix(1, 0, 0, 1, 328.65, 106.841)">
        <tspan x="-10.084" y="-3.813" font-family="GranthaSangamMN-Bold" font-size="8" fill="#DADCE0">DC IN</tspan>
      </text>
    </g>
  </g>
</svg>
