<?xml version="1.0" encoding="UTF-8" standalone="no"?>
<svg
   version="1.1"
   x="0"
   y="0"
   width="1050"
   height="310"
   viewBox="0, 0, 1050, 310"
   id="svg86"
   sodipodi:docname="TD-17 (rear).svg"
   inkscape:version="1.3.2 (091e20e, 2023-11-25)"
   xmlns:inkscape="http://www.inkscape.org/namespaces/inkscape"
   xmlns:sodipodi="http://sodipodi.sourceforge.net/DTD/sodipodi-0.dtd"
   xmlns="http://www.w3.org/2000/svg"
   xmlns:svg="http://www.w3.org/2000/svg">
  <defs
     id="defs86" />
  <sodipodi:namedview
     id="namedview86"
     pagecolor="#ffffff"
     bordercolor="#000000"
     borderopacity="0.25"
     inkscape:showpageshadow="2"
     inkscape:pageopacity="0.0"
     inkscape:pagecheckerboard="0"
     inkscape:deskcolor="#d1d1d1"
     inkscape:zoom="0.61232389"
     inkscape:cx="516.88332"
     inkscape:cy="131.46637"
     inkscape:window-width="1392"
     inkscape:window-height="1212"
     inkscape:window-x="3339"
     inkscape:window-y="703"
     inkscape:window-maximized="0"
     inkscape:current-layer="svg86" />
  <g
     id="Body"
     style="display:inline">
    <path
       d="m 26.035742,68.145988 48.273217,-0.16703 -0.01135,31.468416 -48.273217,0.167029 z"
       fill="#6f6f6f"
       id="path52"
       style="stroke-width:1.17905" />
    <path
       d="m 989.521,68.054738 35.802,-0.162 0.138,30.521 -35.802,0.162 z"
       fill="#6f6f6f"
       id="path53" />
    <g
       id="g55"
       style="display:inline"
       inkscape:label="Main Body">
      <path
         d="m 1033.377,98.75 v 15.628 L 958.663,307.671 92.136,306.437 17.624,114.789 V 99.161 Z M 990.014,68.228 H 61.635 V 98.75 h 928.379 z"
         fill="#383838"
         id="path54"
         style="display:inline" />
      <path
         d="m 1033.377,98.75 v 15.628 L 958.663,307.671 92.136,306.437 17.624,114.789 V 99.161 Z M 990.014,68.228 H 61.635 V 98.75 h 928.379 z"
         fill-opacity="0"
         stroke="#000000"
         stroke-width="0.5"
         id="path55"
         style="display:inline" />
    </g>
    <g
       id="Knob_1"
       style="display:inline">
      <path
         d="m 90.727,13.347 -2.566,55.583 51.466,0.166 -1.596,-55.552 z"
         fill="#000000"
         id="path1" />
      <path
         d="m 90.727,13.347 c -0.13,-9.011 47.189,-9.011 47.319,-0.198"
         fill="#808080"
         id="path2" />
      <path
         d="M 90.684,13.74 C 90.553,9.002 137.916,9.002 138.046,13.636"
         fill="#000000"
         id="path3" />
      <g
         id="g12">
        <path
           d="m 118.427,13.782 -1.545,51.385"
           fill-opacity="0"
           stroke="#808080"
           stroke-width="0.5"
           id="path4" />
        <path
           d="m 122.401,13.782 -0.662,51.385"
           fill-opacity="0"
           stroke="#808080"
           stroke-width="0.5"
           id="path5" />
        <path
           d="m 130.981,13.782 -0.662,51.385"
           fill-opacity="0"
           stroke="#808080"
           stroke-width="0.5"
           id="path6" />
        <path
           d="m 133.9,13.782 -0.662,51.385"
           fill-opacity="0"
           stroke="#808080"
           stroke-width="0.5"
           id="path7" />
        <path
           d="m 126.835,13.782 -0.662,51.385"
           fill-opacity="0"
           stroke="#808080"
           stroke-width="0.5"
           id="Shape" />
        <path
           d="M 97.127,13.782 95.581,65.167"
           fill-opacity="0"
           stroke="#808080"
           stroke-width="0.5"
           id="path8" />
        <path
           d="m 101.1,13.782 -0.662,51.385"
           fill-opacity="0"
           stroke="#808080"
           stroke-width="0.5"
           id="path9" />
        <path
           d="m 109.68,13.782 -0.662,51.385"
           fill-opacity="0"
           stroke="#808080"
           stroke-width="0.5"
           id="path10" />
        <path
           d="m 112.599,13.782 -0.662,51.385"
           fill-opacity="0"
           stroke="#808080"
           stroke-width="0.5"
           id="path11" />
        <path
           d="m 105.535,13.782 -0.663,51.385"
           fill-opacity="0"
           stroke="#808080"
           stroke-width="0.5"
           id="path12" />
      </g>
    </g>
    <g
       id="Knob_2"
       style="display:inline">
      <path
         d="m 184.838,13.347 -2.566,55.583 51.465,0.166 -1.596,-55.552 z"
         fill="#000000"
         id="path13" />
      <path
         d="m 184.838,13.347 c -0.131,-9.011 47.188,-9.011 47.319,-0.198"
         fill="#808080"
         id="path14" />
      <path
         d="m 184.795,13.74 c -0.131,-4.738 47.231,-4.738 47.362,-0.104"
         fill="#000000"
         id="path15" />
      <g
         id="g25">
        <path
           d="m 212.191,13.782 -1.545,51.385"
           fill-opacity="0"
           stroke="#808080"
           stroke-width="0.5"
           id="path16" />
        <path
           d="m 216.165,13.782 -0.662,51.385"
           fill-opacity="0"
           stroke="#808080"
           stroke-width="0.5"
           id="path17" />
        <path
           d="m 224.745,13.782 -0.662,51.385"
           fill-opacity="0"
           stroke="#808080"
           stroke-width="0.5"
           id="path18" />
        <path
           d="m 227.664,13.782 -0.662,51.385"
           fill-opacity="0"
           stroke="#808080"
           stroke-width="0.5"
           id="path19" />
        <path
           d="m 220.599,13.782 -0.662,51.385"
           fill-opacity="0"
           stroke="#808080"
           stroke-width="0.5"
           id="path20" />
        <path
           d="m 190.89,13.782 -1.545,51.385"
           fill-opacity="0"
           stroke="#808080"
           stroke-width="0.5"
           id="path21" />
        <path
           d="m 194.864,13.782 -0.662,51.385"
           fill-opacity="0"
           stroke="#808080"
           stroke-width="0.5"
           id="path22" />
        <path
           d="m 203.444,13.782 -0.662,51.385"
           fill-opacity="0"
           stroke="#808080"
           stroke-width="0.5"
           id="path23" />
        <path
           d="m 206.363,13.782 -0.662,51.385"
           fill-opacity="0"
           stroke="#808080"
           stroke-width="0.5"
           id="path24" />
        <path
           d="m 199.298,13.782 -0.662,51.385"
           fill-opacity="0"
           stroke="#808080"
           stroke-width="0.5"
           id="path25" />
      </g>
    </g>
    <g
       id="Knob_3"
       style="display:inline">
      <path
         d="m 283.425,13.347 -2.566,55.583 51.466,0.166 -1.597,-55.552 z"
         fill="#000000"
         id="path26" />
      <path
         d="m 283.425,13.347 c -0.13,-9.011 47.189,-9.011 47.319,-0.198"
         fill="#808080"
         id="path27" />
      <path
         d="m 283.382,13.74 c -0.131,-4.738 47.231,-4.738 47.362,-0.104"
         fill="#000000"
         id="path28" />
      <g
         id="g38">
        <path
           d="m 310.779,13.782 -1.546,51.385"
           fill-opacity="0"
           stroke="#808080"
           stroke-width="0.5"
           id="path29" />
        <path
           d="M 314.752,13.782 314.09,65.167"
           fill-opacity="0"
           stroke="#808080"
           stroke-width="0.5"
           id="path30" />
        <path
           d="M 323.333,13.782 322.67,65.167"
           fill-opacity="0"
           stroke="#808080"
           stroke-width="0.5"
           id="path31" />
        <path
           d="m 326.251,13.782 -0.662,51.385"
           fill-opacity="0"
           stroke="#808080"
           stroke-width="0.5"
           id="path32" />
        <path
           d="m 319.187,13.782 -0.663,51.385"
           fill-opacity="0"
           stroke="#808080"
           stroke-width="0.5"
           id="path33" />
        <path
           d="m 297.886,13.782 -0.662,51.385"
           fill-opacity="0"
           stroke="#808080"
           stroke-width="0.5"
           id="path34" />
        <path
           d="m 304.95,13.782 -0.662,51.385"
           fill-opacity="0"
           stroke="#808080"
           stroke-width="0.5"
           id="path35" />
        <path
           d="m 302.032,13.782 -0.663,51.385"
           fill-opacity="0"
           stroke="#808080"
           stroke-width="0.5"
           id="path36" />
        <path
           d="m 293.452,13.782 -0.663,51.385"
           fill-opacity="0"
           stroke="#808080"
           stroke-width="0.5"
           id="path37" />
        <path
           d="m 289.478,13.782 -1.546,51.385"
           fill-opacity="0"
           stroke="#808080"
           stroke-width="0.5"
           id="path38" />
      </g>
    </g>
    <g
       id="Knob_4"
       inkscape:label="Knob_4"
       style="display:inline">
      <path
         d="m 379.644,13.347 -2.566,55.583 51.466,0.166 -1.597,-55.552 z"
         fill="#000000"
         id="path39" />
      <path
         d="m 379.644,13.347 c -0.13,-9.011 47.189,-9.011 47.319,-0.198"
         fill="#808080"
         id="path40" />
      <path
         d="M 379.601,13.74 C 379.47,9.002 426.833,9.002 426.963,13.636"
         fill="#000000"
         id="path41" />
      <g
         id="g51">
        <path
           d="m 409.28,13.782 -1.545,51.385"
           fill-opacity="0"
           stroke="#808080"
           stroke-width="0.5"
           id="path42" />
        <path
           d="m 413.254,13.782 -0.663,51.385"
           fill-opacity="0"
           stroke="#808080"
           stroke-width="0.5"
           id="path43" />
        <path
           d="m 421.834,13.782 -0.662,51.385"
           fill-opacity="0"
           stroke="#808080"
           stroke-width="0.5"
           id="path44" />
        <path
           d="M 424.753,13.782 424.09,65.167"
           fill-opacity="0"
           stroke="#808080"
           stroke-width="0.5"
           id="path45" />
        <path
           d="m 417.688,13.782 -0.662,51.385"
           fill-opacity="0"
           stroke="#808080"
           stroke-width="0.5"
           id="path46" />
        <path
           d="m 387.979,13.782 -1.545,51.385"
           fill-opacity="0"
           stroke="#808080"
           stroke-width="0.5"
           id="path47" />
        <path
           d="m 391.953,13.782 -0.662,51.385"
           fill-opacity="0"
           stroke="#808080"
           stroke-width="0.5"
           id="path48" />
        <path
           d="m 400.533,13.782 -0.662,51.385"
           fill-opacity="0"
           stroke="#808080"
           stroke-width="0.5"
           id="path49" />
        <path
           d="m 403.452,13.782 -0.663,51.385"
           fill-opacity="0"
           stroke="#808080"
           stroke-width="0.5"
           id="path50" />
        <path
           d="m 396.387,13.782 -0.662,51.385"
           fill-opacity="0"
           stroke="#808080"
           stroke-width="0.5"
           id="path51" />
      </g>
    </g>
  </g>
  <g
     id="g77"
     style="display:inline"
     inkscape:label="Inputs and Outputs">
    <g
       id="Midi">
      <g
         id="Out">
        <path
           d="m 622.008,220.73 c -23.086,-0.583 -41.333,-19.04 -40.756,-41.224 0.578,-22.185 19.761,-39.696 42.847,-39.113 23.086,0.583 41.333,19.04 40.756,41.224 -0.577,22.184 -19.761,39.696 -42.847,39.113 z"
           fill="#000000"
           id="path56" />
        <path
           d="m 622.008,220.73 c -23.086,-0.583 -41.333,-19.04 -40.756,-41.224 0.578,-22.185 19.761,-39.696 42.847,-39.113 23.086,0.583 41.333,19.04 40.756,41.224 -0.577,22.184 -19.761,39.696 -42.847,39.113 z"
           fill-opacity="0"
           stroke="#ffffff"
           stroke-width="1"
           id="path57" />
      </g>
    </g>
    <g
       id="Master_Out">
      <g
         id="R">
        <path
           d="m 325.39,186.713 c -15.344,0 -27.783,-11.734 -27.783,-26.208 0,-14.475 12.439,-26.208 27.783,-26.208 15.345,0 27.784,11.733 27.784,26.208 0,14.474 -12.439,26.208 -27.784,26.208 z"
           fill="#2c2b2f"
           id="path58" />
        <path
           d="m 325.395,179.961 c -11.379,0.155 -20.716,-8.557 -20.854,-19.461 -0.138,-10.903 8.974,-19.869 20.354,-20.024 11.379,-0.156 20.716,8.557 20.854,19.46 0.138,10.904 -8.975,19.869 -20.354,20.025 z"
           fill="#000000"
           id="path59" />
      </g>
      <g
         id="L/Mono">
        <path
           d="m 394.517,186.713 c -15.344,0 -27.783,-11.734 -27.783,-26.208 0,-14.475 12.439,-26.208 27.783,-26.208 15.345,0 27.784,11.733 27.784,26.208 0,14.474 -12.439,26.208 -27.784,26.208 z"
           fill="#2c2b2f"
           id="path60" />
        <path
           d="m 394.522,179.961 c -11.379,0.155 -20.716,-8.557 -20.854,-19.461 -0.138,-10.903 8.975,-19.869 20.354,-20.024 11.379,-0.156 20.716,8.557 20.854,19.46 0.139,10.904 -8.974,19.869 -20.354,20.025 z"
           fill="#000000"
           id="path61" />
      </g>
    </g>
    <g
       id="Mix_In">
      <path
         d="m 466.445,174.36 c -8.432,0 -15.267,-6.203 -15.267,-13.855 0,-7.653 6.835,-13.856 15.267,-13.856 8.432,0 15.267,6.203 15.267,13.856 0,7.652 -6.835,13.855 -15.267,13.855 z"
         fill="#6b6972"
         id="path62" />
      <path
         d="m 466.448,170.791 c -6.253,0.082 -11.384,-4.524 -11.46,-10.289 -0.076,-5.764 4.932,-10.504 11.185,-10.586 6.253,-0.083 11.383,4.524 11.459,10.288 0.076,5.764 -4.931,10.504 -11.184,10.587 z"
         fill="#000000"
         id="path63" />
      <path
         d="m 466.945,187.213 c -14.722,0 -26.656,-11.734 -26.656,-26.208 0,-14.475 11.934,-26.208 26.656,-26.208 14.722,0 26.656,11.733 26.656,26.208 0,14.474 -11.934,26.208 -26.656,26.208 z"
         fill-opacity="0"
         stroke="#000000"
         stroke-width="1"
         id="path64" />
    </g>
    <g
       id="DC">
      <g
         id="DC_IN">
        <path
           d="m 150.925,143.25 h 44.133 v 53.639 h -44.133 z"
           fill="#2c2b2f"
           id="path65" />
        <path
           d="m 150.925,143.25 h 44.133 v 53.639 h -44.133 z"
           fill-opacity="0"
           stroke="#000000"
           stroke-width="1"
           id="path66" />
      </g>
      <g
         id="g68">
        <path
           d="m 172.991,191.857 c -8.065,0 -14.603,-6.373 -14.603,-14.234 0,-7.861 6.538,-14.234 14.603,-14.234 8.066,0 14.604,6.373 14.604,14.234 0,7.861 -6.538,14.234 -14.604,14.234 z"
           fill="#000000"
           id="path67" />
        <path
           d="m 172.991,191.857 c -8.065,0 -14.603,-6.373 -14.603,-14.234 0,-7.861 6.538,-14.234 14.603,-14.234 8.066,0 14.604,6.373 14.604,14.234 0,7.861 -6.538,14.234 -14.604,14.234 z"
           fill-opacity="0"
           stroke="#000000"
           stroke-width="0.5"
           id="path68" />
      </g>
      <g
         id="g70">
        <path
           d="m 178.221,176.311 c -1.474,0 -2.669,-1.209 -2.669,-2.702 0,-1.492 1.195,-2.701 2.669,-2.701 1.473,0 2.668,1.209 2.668,2.701 0,1.493 -1.195,2.702 -2.668,2.702 z"
           fill="#ffffff"
           id="path69" />
        <path
           d="m 178.221,176.311 c -1.474,0 -2.669,-1.209 -2.669,-2.702 0,-1.492 1.195,-2.701 2.669,-2.701 1.473,0 2.668,1.209 2.668,2.701 0,1.493 -1.195,2.702 -2.668,2.702 z"
           fill-opacity="0"
           stroke="#000000"
           stroke-width="0.5"
           id="path70" />
      </g>
    </g>
    <g
       id="Trigger_In">
      <g
         id="Crash_2">
        <path
           d="m 325.39,288.123 c -15.344,0 -27.783,-11.734 -27.783,-26.208 0,-14.474 12.439,-26.208 27.783,-26.208 15.345,0 27.784,11.734 27.784,26.208 0,14.474 -12.439,26.208 -27.784,26.208 z"
           fill="#2c2b2f"
           id="path71" />
        <path
           d="m 325.395,281.371 c -11.379,0.156 -20.716,-8.557 -20.854,-19.46 -0.138,-10.904 8.974,-19.869 20.354,-20.025 11.379,-0.156 20.716,8.557 20.854,19.46 0.138,10.904 -8.975,19.869 -20.354,20.025 z"
           fill="#000000"
           id="path72" />
      </g>
      <g
         id="Aux">
        <path
           d="m 394.517,288.123 c -15.344,0 -27.783,-11.734 -27.783,-26.208 0,-14.474 12.439,-26.208 27.783,-26.208 15.345,0 27.784,11.734 27.784,26.208 0,14.474 -12.439,26.208 -27.784,26.208 z"
           fill="#2c2b2f"
           id="path73" />
        <path
           d="m 394.522,281.371 c -11.379,0.156 -20.716,-8.557 -20.854,-19.46 -0.138,-10.904 8.975,-19.869 20.354,-20.025 11.379,-0.156 20.716,8.557 20.854,19.46 0.139,10.904 -8.974,19.869 -20.354,20.025 z"
           fill="#000000"
           id="path74" />
      </g>
    </g>
    <g
       id="Phones">
      <path
         d="m 257.2,187.213 c -14.722,0 -26.656,-11.734 -26.656,-26.208 0,-14.475 11.934,-26.208 26.656,-26.208 14.722,0 26.656,11.733 26.656,26.208 0,14.474 -11.934,26.208 -26.656,26.208 z"
         fill-opacity="0"
         stroke="#000000"
         stroke-width="1"
         id="path75" />
      <path
         d="m 256.7,174.36 c -8.432,0 -15.267,-6.203 -15.267,-13.855 0,-7.653 6.835,-13.856 15.267,-13.856 8.432,0 15.267,6.203 15.267,13.856 0,7.652 -6.835,13.855 -15.267,13.855 z"
         fill="#6b6972"
         id="path76" />
      <path
         d="m 256.703,170.791 c -6.253,0.082 -11.384,-4.524 -11.46,-10.289 -0.076,-5.764 4.932,-10.504 11.185,-10.586 6.253,-0.083 11.383,4.524 11.459,10.288 0.076,5.764 -4.931,10.504 -11.184,10.587 z"
         fill="#000000"
         id="path77" />
    </g>
  </g>
  <g
     id="Labels"
     style="display:inline">
    <text
       transform="translate(622.554,138.149)"
       id="____MIDI____"
       style="display:inline;-inkscape-font-specification:'GranthaSangamMN-Bold, Bold';font-family:GranthaSangamMN-Bold;font-weight:bold;font-style:normal;font-stretch:normal;font-variant:normal;font-size:12px;font-variant-ligatures:normal;font-variant-caps:normal;font-variant-numeric:normal;font-variant-east-asian:normal"><tspan
         x="-33.417999"
         y="-5.072"
         font-family="GranthaSangamMN-Bold"
         font-size="16px"
         fill="#dadce0"
         id="tspan77"
         style="-inkscape-font-specification:'GranthaSangamMN-Bold, Bold';font-family:GranthaSangamMN-Bold;font-weight:bold;font-style:normal;font-stretch:normal;font-variant:normal;font-size:12px;font-variant-ligatures:normal;font-variant-caps:normal;font-variant-numeric:normal;font-variant-east-asian:normal">MIDI OUT</tspan></text>
    <text
       transform="translate(172.491,130.788)"
       id="text78"
       style="display:inline;-inkscape-font-specification:'GranthaSangamMN-Bold, Bold';font-family:GranthaSangamMN-Bold;font-weight:bold;font-style:normal;font-stretch:normal;font-variant:normal;font-size:12px;font-variant-ligatures:normal;font-variant-caps:normal;font-variant-numeric:normal;font-variant-east-asian:normal"
       inkscape:label="DC IN"><tspan
         x="-20.167999"
         y="2.289"
         font-family="GranthaSangamMN-Bold"
         font-size="16px"
         fill="#dadce0"
         id="tspan78"
         style="-inkscape-font-specification:'GranthaSangamMN-Bold, Bold';font-family:GranthaSangamMN-Bold;font-weight:bold;font-style:normal;font-stretch:normal;font-variant:normal;font-size:12px;font-variant-ligatures:normal;font-variant-caps:normal;font-variant-numeric:normal;font-variant-east-asian:normal">DC IN</tspan></text>
    <text
       transform="translate(359.954,113.297)"
       id="MASTER_OUTPUT"
       style="-inkscape-font-specification:'sans-serif, Bold';font-family:sans-serif;font-weight:bold;font-style:normal;font-stretch:normal;font-variant:normal;font-size:12px;font-variant-ligatures:normal;font-variant-caps:normal;font-variant-numeric:normal;font-variant-east-asian:normal"><tspan
         x="-76.219002"
         y="-2"
         font-family="GranthaSangamMN-Bold"
         font-size="16px"
         fill="#dadce0"
         id="tspan79"
         style="-inkscape-font-specification:'sans-serif, Bold';font-family:sans-serif;font-weight:bold;font-style:normal;font-stretch:normal;font-variant:normal;font-size:12px;font-variant-ligatures:normal;font-variant-caps:normal;font-variant-numeric:normal;font-variant-east-asian:normal">—MASTER OUTPUT—</tspan></text>
    <text
       transform="translate(359.532,213.889)"
       id="text80"
       style="-inkscape-font-specification:'sans-serif, Bold';font-family:sans-serif;font-weight:bold;font-style:normal;font-stretch:normal;font-variant:normal;font-size:12px;font-variant-ligatures:normal;font-variant-caps:normal;font-variant-numeric:normal;font-variant-east-asian:normal"
       inkscape:label="Trigger In"><tspan
         x="-68.707001"
         y="1.5"
         font-family="GranthaSangamMN-Bold"
         font-size="16px"
         fill="#dadce0"
         id="tspan80"
         style="-inkscape-font-specification:'sans-serif, Bold';font-family:sans-serif;font-weight:bold;font-style:normal;font-stretch:normal;font-variant:normal;font-size:12px;font-variant-ligatures:normal;font-variant-caps:normal;font-variant-numeric:normal;font-variant-east-asian:normal">——TRIGGER IN——</tspan></text>
    <text
       transform="translate(324.184,234.624)"
       id="text81"
       style="-inkscape-font-specification:'sans-serif, Bold';font-family:sans-serif;font-weight:bold;font-style:normal;font-stretch:normal;font-variant:normal;font-size:12px;font-variant-ligatures:normal;font-variant-caps:normal;font-variant-numeric:normal;font-variant-east-asian:normal"
       inkscape:label="Crash 2"><tspan
         x="-32.582001"
         y="1"
         font-family="GranthaSangamMN-Bold"
         font-size="16px"
         fill="#dadce0"
         id="tspan81"
         style="-inkscape-font-specification:'sans-serif, Bold';font-family:sans-serif;font-weight:bold;font-style:normal;font-stretch:normal;font-variant:normal;font-size:12px;font-variant-ligatures:normal;font-variant-caps:normal;font-variant-numeric:normal;font-variant-east-asian:normal">CRASH 2</tspan></text>
    <text
       transform="translate(395.731,234.624)"
       id="text82"
       style="-inkscape-font-specification:'sans-serif, Bold';font-family:sans-serif;font-weight:bold;font-style:normal;font-stretch:normal;font-variant:normal;font-size:12px;font-variant-ligatures:normal;font-variant-caps:normal;font-variant-numeric:normal;font-variant-east-asian:normal"
       inkscape:label="Aux"><tspan
         x="-15.656"
         y="2.0869999"
         font-family="GranthaSangamMN-Bold"
         font-size="16px"
         fill="#dadce0"
         id="tspan82"
         style="-inkscape-font-specification:'sans-serif, Bold';font-family:sans-serif;font-weight:bold;font-style:normal;font-stretch:normal;font-variant:normal;font-size:12px;font-variant-ligatures:normal;font-variant-caps:normal;font-variant-numeric:normal;font-variant-east-asian:normal">AUX</tspan></text>
    <text
       transform="translate(395.731,130.788)"
       id="text83"
       style="-inkscape-font-specification:'sans-serif, Bold';font-family:sans-serif;font-weight:bold;font-style:normal;font-stretch:normal;font-variant:normal;font-size:12px;font-variant-ligatures:normal;font-variant-caps:normal;font-variant-numeric:normal;font-variant-east-asian:normal"
       inkscape:label="L/Mono"><tspan
         x="-30.882999"
         y="1.4119999"
         font-family="GranthaSangamMN-Bold"
         font-size="16px"
         fill="#dadce0"
         id="tspan83"
         style="-inkscape-font-specification:'sans-serif, Bold';font-family:sans-serif;font-weight:bold;font-style:normal;font-stretch:normal;font-variant:normal;font-size:12px;font-variant-ligatures:normal;font-variant-caps:normal;font-variant-numeric:normal;font-variant-east-asian:normal">L/MONO</tspan></text>
    <text
       transform="translate(324.184,130.876)"
       id="text84"
       style="-inkscape-font-specification:'sans-serif, Bold';font-family:sans-serif;font-weight:bold;font-style:normal;font-stretch:normal;font-variant:normal;font-size:12px;font-variant-ligatures:normal;font-variant-caps:normal;font-variant-numeric:normal;font-variant-east-asian:normal"
       inkscape:label="R"><tspan
         x="-5.0900002"
         y="1.5"
         font-family="GranthaSangamMN-Bold"
         font-size="16px"
         fill="#dadce0"
         id="tspan84"
         style="-inkscape-font-specification:'sans-serif, Bold';font-family:sans-serif;font-weight:bold;font-style:normal;font-stretch:normal;font-variant:normal;font-size:12px;font-variant-ligatures:normal;font-variant-caps:normal;font-variant-numeric:normal;font-variant-east-asian:normal">R</tspan></text>
    <text
       transform="translate(256.7,130.876)"
       id="text85"
       style="-inkscape-font-specification:'sans-serif, Bold';font-family:sans-serif;font-weight:bold;font-style:normal;font-stretch:normal;font-variant:normal;font-size:12px;font-variant-ligatures:normal;font-variant-caps:normal;font-variant-numeric:normal;font-variant-east-asian:normal"
       inkscape:label="Phones"><tspan
         x="-30.676001"
         y="1.5"
         font-family="GranthaSangamMN-Bold"
         font-size="16px"
         fill="#dadce0"
         id="tspan85"
         style="-inkscape-font-specification:'sans-serif, Bold';font-family:sans-serif;font-weight:bold;font-style:normal;font-stretch:normal;font-variant:normal;font-size:12px;font-variant-ligatures:normal;font-variant-caps:normal;font-variant-numeric:normal;font-variant-east-asian:normal">PHONES</tspan></text>
    <text
       transform="translate(466.445,132.86)"
       id="text86"
       style="-inkscape-font-specification:'sans-serif, Bold';font-family:sans-serif;font-weight:bold;font-style:normal;font-stretch:normal;font-variant:normal;font-size:12px;font-variant-ligatures:normal;font-variant-caps:normal;font-variant-numeric:normal;font-variant-east-asian:normal"
       inkscape:label="Mix In"><tspan
         x="-22.777"
         y="0.21699999"
         font-family="GranthaSangamMN-Bold"
         font-size="16px"
         fill="#dadce0"
         id="tspan86"
         style="-inkscape-font-specification:'sans-serif, Bold';font-family:sans-serif;font-weight:bold;font-style:normal;font-stretch:normal;font-variant:normal;font-size:12px;font-variant-ligatures:normal;font-variant-caps:normal;font-variant-numeric:normal;font-variant-east-asian:normal">MIX IN</tspan></text>
  </g>
</svg>
